<svg xmlns="http://www.w3.org/2000/svg" viewBox="0 0 760 420" role="img" aria-labelledby="title desc">
  <title id="title">TaskiT logo</title>
  <desc id="desc">TaskiT rocket logo with the tagline get it done on campus.</desc>
  <defs>
    <linearGradient id="rocket" x1="295" x2="455" y1="50" y2="230" gradientUnits="userSpaceOnUse">
      <stop offset="0" stop-color="#1f6b47" />
      <stop offset="1" stop-color="#0f3a29" />
    </linearGradient>
    <linearGradient id="flame" x1="245" x2="305" y1="210" y2="282" gradientUnits="userSpaceOnUse">
      <stop offset="0" stop-color="#f59e0b" />
      <stop offset="1" stop-color="#a83222" />
    </linearGradient>
    <filter id="soft-shadow" x="-20%" y="-20%" width="140%" height="140%">
      <feDropShadow dx="0" dy="8" stdDeviation="8" flood-color="#092216" flood-opacity="0.18" />
    </filter>
  </defs>
  <g filter="url(#soft-shadow)">
    <path fill="url(#rocket)" d="M372 49c43-15 76-10 100-5 4 27 6 59-9 99-17 45-50 80-96 112l-61-61c21-54 43-100 66-145Z" />
    <path fill="#123d2d" d="M472 44c-2 26-7 51-18 77l-55-55c26-12 51-18 73-22Z" />
    <circle cx="401" cy="121" r="24" fill="#f8fafc" />
    <path fill="#1a4731" d="M295 160c-31 0-58 10-80 37l-12 14 72-7 41-42c-7-1-14-2-21-2Z" />
    <path fill="#1a4731" d="M420 241c-1 31-12 58-39 80l-14 12 8-72 42-42c2 7 3 14 3 22Z" />
    <path fill="url(#flame)" d="M282 220c-22 2-41 16-55 43 13-4 26-4 39 2-12 9-21 23-26 42 31-9 53-25 66-49 7-14 10-28 9-43-11 6-22 8-33 5Z" />
    <path fill="#fff5e6" d="M273 248c-9 5-16 13-21 25 11-4 21-2 30 5 7-12 11-24 12-36-6 4-13 6-21 6Z" opacity="0.9" />
  </g>
  <g font-family="DM Sans, Arial, sans-serif" font-weight="900">
    <text x="92" y="337" fill="#155c3d" font-size="122" letter-spacing="-2">task</text>
    <text x="445" y="337" fill="#b53527" font-size="122" letter-spacing="-2">i</text>
    <text x="486" y="337" fill="#155c3d" font-size="122" letter-spacing="-2">t</text>
    <text x="160" y="383" fill="#1a4731" font-size="34" font-weight="800">get it done on </text>
    <text x="410" y="383" fill="#b53527" font-size="34" font-weight="800">campus</text>
  </g>
</svg>
